<svg fill="none" xmlns="http://www.w3.org/2000/svg">
<g filter="url(#filter0_d)">
<path d="M226 60V78C233.125 78 239.922 78.8438 246.391 80.5312C252.953 82.125 258.719 84.75 263.688 88.4062C268.656 91.9688 272.594 96.6094 275.5 102.328C278.5 107.953 280 114.844 280 123C280 129.188 278.781 135 276.344 140.438C274 145.875 270.766 150.656 266.641 154.781C262.609 158.812 257.875 162.047 252.438 164.484C247 166.828 241.188 168 235 168H163C156.812 168 151 166.828 145.562 164.484C140.125 162.047 135.344 158.812 131.219 154.781C127.188 150.656 123.953 145.875 121.516 140.438C119.172 135 118 129.188 118 123C118 114.844 119.453 107.953 122.359 102.328C125.359 96.6094 129.344 91.9688 134.312 88.4062C139.281 84.75 145 82.125 151.469 80.5312C158.031 78.8438 164.875 78 172 78V60H163C154.281 60 146.078 61.6875 138.391 65.0625C130.797 68.3437 124.141 72.8437 118.422 78.5625C112.797 84.1875 108.297 90.8438 104.922 98.5312C101.641 106.125 100 114.281 100 123C100 131.719 101.641 139.922 104.922 147.609C108.297 155.203 112.797 161.859 118.422 167.578C124.141 173.203 130.797 177.703 138.391 181.078C146.078 184.359 154.281 186 163 186H235C243.719 186 251.875 184.359 259.469 181.078C267.156 177.703 273.812 173.203 279.438 167.578C285.156 161.859 289.656 155.203 292.938 147.609C296.312 139.922 298 131.719 298 123C298 114.281 296.312 106.125 292.938 98.5312C289.656 90.8438 285.156 84.1875 279.438 78.5625C273.812 72.8437 267.156 68.3437 259.469 65.0625C251.875 61.6875 243.719 60 235 60H226ZM136 132V114C143.125 114 149.922 113.203 156.391 111.609C162.953 109.922 168.719 107.297 173.688 103.734C178.656 100.078 182.594 95.4375 185.5 89.8125C188.5 84.0938 190 77.1562 190 69C190 62.8125 188.781 57 186.344 51.5625C184 46.125 180.766 41.3906 176.641 37.3594C172.609 33.2344 167.875 30 162.438 27.6562C157 25.2188 151.188 24 145 24H73C66.8125 24 61 25.2188 55.5625 27.6562C50.125 30 45.3438 33.2344 41.2188 37.3594C37.1875 41.3906 33.9531 46.125 31.5156 51.5625C29.1719 57 28 62.8125 28 69C28 77.1562 29.4531 84.0938 32.3594 89.8125C35.3594 95.4375 39.3438 100.078 44.3125 103.734C49.2812 107.297 55 109.922 61.4688 111.609C68.0312 113.203 74.875 114 82 114V132H73C64.2812 132 56.0781 130.359 48.3906 127.078C40.7969 123.703 34.1406 119.203 28.4219 113.578C22.7969 107.859 18.2969 101.203 14.9219 93.6094C11.6406 85.9219 10 77.7188 10 69C10 60.2812 11.6406 52.125 14.9219 44.5312C18.2969 36.8437 22.7969 30.1875 28.4219 24.5625C34.1406 18.8437 40.7969 14.3437 48.3906 11.0625C56.0781 7.6875 64.2812 6 73 6H145C153.719 6 161.875 7.6875 169.469 11.0625C177.156 14.3437 183.812 18.8437 189.438 24.5625C195.156 30.1875 199.656 36.8437 202.938 44.5312C206.312 52.125 208 60.2812 208 69C208 77.7188 206.312 85.9219 202.938 93.6094C199.656 101.203 195.156 107.859 189.438 113.578C183.812 119.203 177.156 123.703 169.469 127.078C161.875 130.359 153.719 132 145 132H136Z" fill="black"/>
</g>
<defs>
<filter id="filter0_d" x="0" y="0" width="308" height="200" filterUnits="userSpaceOnUse" color-interpolation-filters="sRGB">
<feFlood flood-opacity="0" result="BackgroundImageFix"/>
<feColorMatrix in="SourceAlpha" type="matrix" values="0 0 0 0 0 0 0 0 0 0 0 0 0 0 0 0 0 0 127 0"/>
<feOffset dy="4"/>
<feGaussianBlur stdDeviation="5"/>
<feColorMatrix type="matrix" values="0 0 0 0 0 0 0 0 0 0 0 0 0 0 0 0 0 0 0.7 0"/>
<feBlend mode="normal" in2="BackgroundImageFix" result="effect1_dropShadow"/>
<feBlend mode="normal" in="SourceGraphic" in2="effect1_dropShadow" result="shape"/>
</filter>
</defs>
</svg>
