<svg width="74" height="54" viewBox="0 0 74 54" fill="none" xmlns="http://www.w3.org/2000/svg">
<g filter="url(#filter0_d)">
<path d="M50.5 16.25V19.625C51.8359 19.625 53.1104 19.7832 54.3232 20.0996C55.5537 20.3984 56.6348 20.8906 57.5664 21.5762C58.498 22.2441 59.2363 23.1143 59.7812 24.1865C60.3438 25.2412 60.625 26.5332 60.625 28.0625C60.625 29.2227 60.3965 30.3125 59.9395 31.332C59.5 32.3516 58.8936 33.248 58.1201 34.0215C57.3643 34.7773 56.4766 35.3838 55.457 35.8408C54.4375 36.2803 53.3477 36.5 52.1875 36.5H38.6875C37.5273 36.5 36.4375 36.2803 35.418 35.8408C34.3984 35.3838 33.502 34.7773 32.7285 34.0215C31.9727 33.248 31.3662 32.3516 30.9092 31.332C30.4697 30.3125 30.25 29.2227 30.25 28.0625C30.25 26.5332 30.5225 25.2412 31.0674 24.1865C31.6299 23.1143 32.377 22.2441 33.3086 21.5762C34.2402 20.8906 35.3125 20.3984 36.5254 20.0996C37.7559 19.7832 39.0391 19.625 40.375 19.625V16.25H38.6875C37.0527 16.25 35.5146 16.5664 34.0732 17.1992C32.6494 17.8145 31.4014 18.6582 30.3291 19.7305C29.2744 20.7852 28.4307 22.0332 27.7979 23.4746C27.1826 24.8984 26.875 26.4277 26.875 28.0625C26.875 29.6973 27.1826 31.2354 27.7979 32.6768C28.4307 34.1006 29.2744 35.3486 30.3291 36.4209C31.4014 37.4756 32.6494 38.3193 34.0732 38.9521C35.5146 39.5674 37.0527 39.875 38.6875 39.875H52.1875C53.8223 39.875 55.3516 39.5674 56.7754 38.9521C58.2168 38.3193 59.4648 37.4756 60.5195 36.4209C61.5918 35.3486 62.4355 34.1006 63.0508 32.6768C63.6836 31.2354 64 29.6973 64 28.0625C64 26.4277 63.6836 24.8984 63.0508 23.4746C62.4355 22.0332 61.5918 20.7852 60.5195 19.7305C59.4648 18.6582 58.2168 17.8145 56.7754 17.1992C55.3516 16.5664 53.8223 16.25 52.1875 16.25H50.5ZM33.625 29.75V26.375C34.9609 26.375 36.2354 26.2256 37.4482 25.9268C38.6787 25.6104 39.7598 25.1182 40.6914 24.4502C41.623 23.7646 42.3613 22.8945 42.9062 21.8398C43.4688 20.7676 43.75 19.4668 43.75 17.9375C43.75 16.7773 43.5215 15.6875 43.0645 14.668C42.625 13.6484 42.0186 12.7607 41.2451 12.0049C40.4893 11.2314 39.6016 10.625 38.582 10.1855C37.5625 9.72852 36.4727 9.5 35.3125 9.5H21.8125C20.6523 9.5 19.5625 9.72852 18.543 10.1855C17.5234 10.625 16.627 11.2314 15.8535 12.0049C15.0977 12.7607 14.4912 13.6484 14.0342 14.668C13.5947 15.6875 13.375 16.7773 13.375 17.9375C13.375 19.4668 13.6475 20.7676 14.1924 21.8398C14.7549 22.8945 15.502 23.7646 16.4336 24.4502C17.3652 25.1182 18.4375 25.6104 19.6504 25.9268C20.8809 26.2256 22.1641 26.375 23.5 26.375V29.75H21.8125C20.1777 29.75 18.6396 29.4424 17.1982 28.8271C15.7744 28.1943 14.5264 27.3506 13.4541 26.2959C12.3994 25.2236 11.5557 23.9756 10.9229 22.5518C10.3076 21.1104 10 19.5723 10 17.9375C10 16.3027 10.3076 14.7734 10.9229 13.3496C11.5557 11.9082 12.3994 10.6602 13.4541 9.60547C14.5264 8.5332 15.7744 7.68945 17.1982 7.07422C18.6396 6.44141 20.1777 6.125 21.8125 6.125H35.3125C36.9473 6.125 38.4766 6.44141 39.9004 7.07422C41.3418 7.68945 42.5898 8.5332 43.6445 9.60547C44.7168 10.6602 45.5605 11.9082 46.1758 13.3496C46.8086 14.7734 47.125 16.3027 47.125 17.9375C47.125 19.5723 46.8086 21.1104 46.1758 22.5518C45.5605 23.9756 44.7168 25.2236 43.6445 26.2959C42.5898 27.3506 41.3418 28.1943 39.9004 28.8271C38.4766 29.4424 36.9473 29.75 35.3125 29.75H33.625Z" fill="black"/>
</g>
<defs>
<filter id="filter0_d" x="0" y="0.125" width="74" height="53.75" filterUnits="userSpaceOnUse" color-interpolation-filters="sRGB">
<feFlood flood-opacity="0" result="BackgroundImageFix"/>
<feColorMatrix in="SourceAlpha" type="matrix" values="0 0 0 0 0 0 0 0 0 0 0 0 0 0 0 0 0 0 127 0"/>
<feOffset dy="4"/>
<feGaussianBlur stdDeviation="5"/>
<feColorMatrix type="matrix" values="0 0 0 0 0 0 0 0 0 0 0 0 0 0 0 0 0 0 0.7 0"/>
<feBlend mode="normal" in2="BackgroundImageFix" result="effect1_dropShadow"/>
<feBlend mode="normal" in="SourceGraphic" in2="effect1_dropShadow" result="shape"/>
</filter>
</defs>
</svg>
