<svg width="302" height="194" viewBox="0 0 302 194" fill="none" xmlns="http://www.w3.org/2000/svg">
<g filter="url(#filter0_d)">
<path d="M223 57V75C230.125 75 236.922 75.8438 243.391 77.5312C249.953 79.125 255.719 81.75 260.688 85.4062C265.656 88.9688 269.594 93.6094 272.5 99.3281C275.5 104.953 277 111.844 277 120C277 126.188 275.781 132 273.344 137.438C271 142.875 267.766 147.656 263.641 151.781C259.609 155.812 254.875 159.047 249.438 161.484C244 163.828 238.188 165 232 165H160C153.812 165 148 163.828 142.562 161.484C137.125 159.047 132.344 155.812 128.219 151.781C124.188 147.656 120.953 142.875 118.516 137.438C116.172 132 115 126.188 115 120C115 111.844 116.453 104.953 119.359 99.3281C122.359 93.6094 126.344 88.9688 131.312 85.4062C136.281 81.75 142 79.125 148.469 77.5312C155.031 75.8438 161.875 75 169 75V57H160C151.281 57 143.078 58.6875 135.391 62.0625C127.797 65.3437 121.141 69.8437 115.422 75.5625C109.797 81.1875 105.297 87.8438 101.922 95.5312C98.6406 103.125 97 111.281 97 120C97 128.719 98.6406 136.922 101.922 144.609C105.297 152.203 109.797 158.859 115.422 164.578C121.141 170.203 127.797 174.703 135.391 178.078C143.078 181.359 151.281 183 160 183H232C240.719 183 248.875 181.359 256.469 178.078C264.156 174.703 270.812 170.203 276.438 164.578C282.156 158.859 286.656 152.203 289.938 144.609C293.312 136.922 295 128.719 295 120C295 111.281 293.312 103.125 289.938 95.5312C286.656 87.8438 282.156 81.1875 276.438 75.5625C270.812 69.8437 264.156 65.3437 256.469 62.0625C248.875 58.6875 240.719 57 232 57H223ZM133 129V111C140.125 111 146.922 110.203 153.391 108.609C159.953 106.922 165.719 104.297 170.688 100.734C175.656 97.0781 179.594 92.4375 182.5 86.8125C185.5 81.0938 187 74.1562 187 66C187 59.8125 185.781 54 183.344 48.5625C181 43.125 177.766 38.3906 173.641 34.3594C169.609 30.2344 164.875 27 159.438 24.6562C154 22.2188 148.188 21 142 21H70C63.8125 21 58 22.2188 52.5625 24.6562C47.125 27 42.3438 30.2344 38.2188 34.3594C34.1875 38.3906 30.9531 43.125 28.5156 48.5625C26.1719 54 25 59.8125 25 66C25 74.1562 26.4531 81.0938 29.3594 86.8125C32.3594 92.4375 36.3438 97.0781 41.3125 100.734C46.2812 104.297 52 106.922 58.4688 108.609C65.0312 110.203 71.875 111 79 111V129H70C61.2812 129 53.0781 127.359 45.3906 124.078C37.7969 120.703 31.1406 116.203 25.4219 110.578C19.7969 104.859 15.2969 98.2031 11.9219 90.6094C8.64062 82.9219 7 74.7188 7 66C7 57.2812 8.64062 49.125 11.9219 41.5312C15.2969 33.8437 19.7969 27.1875 25.4219 21.5625C31.1406 15.8437 37.7969 11.3437 45.3906 8.0625C53.0781 4.6875 61.2812 3 70 3H142C150.719 3 158.875 4.6875 166.469 8.0625C174.156 11.3437 180.812 15.8437 186.438 21.5625C192.156 27.1875 196.656 33.8437 199.938 41.5312C203.312 49.125 205 57.2812 205 66C205 74.7188 203.312 82.9219 199.938 90.6094C196.656 98.2031 192.156 104.859 186.438 110.578C180.812 116.203 174.156 120.703 166.469 124.078C158.875 127.359 150.719 129 142 129H133Z" fill="black"/>
<path d="M223 57V54.5H220.5V57H223ZM223 75H220.5V77.5H223V75ZM243.391 77.5312L242.76 79.9503L242.78 79.9556L242.801 79.9606L243.391 77.5312ZM260.688 85.4062L259.206 87.4198L259.218 87.429L259.231 87.438L260.688 85.4062ZM272.5 99.3281L270.271 100.461L270.282 100.483L270.294 100.505L272.5 99.3281ZM273.344 137.438L271.062 136.415L271.055 136.431L271.048 136.448L273.344 137.438ZM249.438 161.484L250.427 163.78L250.444 163.773L250.46 163.766L249.438 161.484ZM142.562 161.484L141.54 163.766L141.556 163.773L141.573 163.78L142.562 161.484ZM128.219 151.781L126.431 153.529L126.451 153.549L126.471 153.569L128.219 151.781ZM118.516 137.438L116.22 138.427L116.227 138.444L116.234 138.46L118.516 137.438ZM119.359 99.3281L117.146 98.1668L117.142 98.1737L117.138 98.1806L119.359 99.3281ZM131.312 85.4062L132.769 87.438L132.782 87.429L132.794 87.4198L131.312 85.4062ZM148.469 77.5312L149.067 79.9587L149.079 79.9556L149.091 79.9525L148.469 77.5312ZM169 75V77.5H171.5V75H169ZM169 57H171.5V54.5H169V57ZM135.391 62.0625L136.382 64.3574L136.389 64.3545L136.396 64.3516L135.391 62.0625ZM101.922 95.5312L99.6328 94.5263L99.6298 94.5329L99.627 94.5396L101.922 95.5312ZM101.922 144.609L99.6226 145.591L99.6298 145.608L99.6373 145.625L101.922 144.609ZM115.422 164.578L113.64 166.331L113.654 166.346L113.669 166.36L115.422 164.578ZM135.391 178.078L134.375 180.363L134.392 180.37L134.409 180.377L135.391 178.078ZM256.469 178.078L257.46 180.373L257.467 180.37L257.474 180.367L256.469 178.078ZM289.938 144.609L287.648 143.604L287.645 143.611L287.643 143.618L289.938 144.609ZM289.938 95.5312L287.638 96.5127L287.645 96.5297L287.653 96.5466L289.938 95.5312ZM276.438 75.5625L274.655 77.3156L274.67 77.3303L274.684 77.3448L276.438 75.5625ZM256.469 62.0625L255.453 64.347L255.47 64.3545L255.487 64.3618L256.469 62.0625ZM133 129H130.5V131.5H133V129ZM133 111V108.5H130.5V111H133ZM153.391 108.609L153.989 111.037L154.001 111.034L154.013 111.031L153.391 108.609ZM170.688 100.734L172.144 102.766L172.157 102.757L172.169 102.748L170.688 100.734ZM182.5 86.8125L180.286 85.6511L180.283 85.658L180.279 85.6649L182.5 86.8125ZM183.344 48.5625L181.048 49.5521L181.055 49.5687L181.062 49.5851L183.344 48.5625ZM173.641 34.3594L171.853 36.1067L171.873 36.1273L171.893 36.1473L173.641 34.3594ZM159.438 24.6562L158.415 26.9375L158.431 26.9449L158.448 26.9521L159.438 24.6562ZM52.5625 24.6562L53.5521 26.9521L53.5687 26.9449L53.5851 26.9375L52.5625 24.6562ZM28.5156 48.5625L26.2344 47.5399L26.227 47.5563L26.2198 47.5729L28.5156 48.5625ZM29.3594 86.8125L27.1307 87.9451L27.1419 87.9672L27.1535 87.989L29.3594 86.8125ZM41.3125 100.734L39.8308 102.748L39.8432 102.757L39.8558 102.766L41.3125 100.734ZM58.4688 108.609L57.8377 111.028L57.8582 111.034L57.8788 111.039L58.4688 108.609ZM79 111H81.5V108.5H79V111ZM79 129V131.5H81.5V129H79ZM45.3906 124.078L44.3753 126.363L44.3922 126.37L44.4092 126.377L45.3906 124.078ZM25.4219 110.578L23.6396 112.331L23.654 112.346L23.6688 112.36L25.4219 110.578ZM11.9219 90.6094L9.62256 91.5908L9.62983 91.6078L9.63735 91.6247L11.9219 90.6094ZM11.9219 41.5312L9.63276 40.5263L9.62984 40.5329L9.62695 40.5396L11.9219 41.5312ZM45.3906 8.0625L46.3823 10.3574L46.3889 10.3545L46.3956 10.3516L45.3906 8.0625ZM166.469 8.0625L165.453 10.347L165.47 10.3545L165.487 10.3618L166.469 8.0625ZM186.438 21.5625L184.655 23.3156L184.67 23.3303L184.684 23.3448L186.438 21.5625ZM199.938 41.5312L197.638 42.5127L197.645 42.5297L197.653 42.5466L199.938 41.5312ZM199.938 90.6094L197.648 89.6044L197.645 89.6111L197.643 89.6177L199.938 90.6094ZM166.469 124.078L167.46 126.373L167.467 126.37L167.474 126.367L166.469 124.078ZM220.5 57V75H225.5V57H220.5ZM223 77.5C229.926 77.5 236.51 78.32 242.76 79.9503L244.022 75.1122C237.334 73.3675 230.324 72.5 223 72.5V77.5ZM242.801 79.9606C249.072 81.4837 254.528 83.9778 259.206 87.4198L262.169 83.3927C256.909 79.5222 250.834 76.7663 243.981 75.1019L242.801 79.9606ZM259.231 87.438C263.858 90.7554 267.537 95.0811 270.271 100.461L274.729 98.1955C271.65 92.1376 267.455 87.1821 262.144 83.3745L259.231 87.438ZM270.294 100.505C273.055 105.68 274.5 112.142 274.5 120H279.5C279.5 111.545 277.945 104.226 274.706 98.1517L270.294 100.505ZM274.5 120C274.5 125.849 273.35 131.311 271.062 136.415L275.625 138.46C278.212 132.689 279.5 126.526 279.5 120H274.5ZM271.048 136.448C268.827 141.599 265.771 146.116 261.873 150.013L265.408 153.549C269.76 149.197 273.173 144.151 275.64 138.427L271.048 136.448ZM261.873 150.013C258.066 153.82 253.588 156.884 248.415 159.203L250.46 163.766C256.162 161.209 261.152 157.805 265.408 153.549L261.873 150.013ZM248.448 159.189C243.337 161.392 237.863 162.5 232 162.5V167.5C238.512 167.5 244.663 166.265 250.427 163.78L248.448 159.189ZM232 162.5H160V167.5H232V162.5ZM160 162.5C154.137 162.5 148.663 161.392 143.552 159.189L141.573 163.78C147.337 166.265 153.488 167.5 160 167.5V162.5ZM143.585 159.203C138.407 156.882 133.873 153.812 129.966 149.993L126.471 153.569C130.814 157.813 135.843 161.212 141.54 163.766L143.585 159.203ZM130.007 150.034C126.188 146.127 123.118 141.593 120.797 136.415L116.234 138.46C118.788 144.157 122.187 149.186 126.431 153.529L130.007 150.034ZM120.811 136.448C118.608 131.337 117.5 125.863 117.5 120H112.5C112.5 126.512 113.735 132.663 116.22 138.427L120.811 136.448ZM117.5 120C117.5 112.131 118.903 105.659 121.58 100.476L117.138 98.1806C114.004 104.248 112.5 111.556 112.5 120H117.5ZM121.573 100.489C124.403 95.096 128.135 90.7606 132.769 87.438L129.856 83.3745C124.552 87.1769 120.316 92.1228 117.146 98.1668L121.573 100.489ZM132.794 87.4198C137.478 83.9733 142.891 81.4802 149.067 79.9587L147.871 75.1038C141.109 76.7698 135.085 79.5267 129.831 83.3927L132.794 87.4198ZM149.091 79.9525C155.44 78.3199 162.074 77.5 169 77.5V72.5C161.676 72.5 154.622 73.3676 147.846 75.11L149.091 79.9525ZM171.5 75V57H166.5V75H171.5ZM169 54.5H160V59.5H169V54.5ZM160 54.5C150.949 54.5 142.402 56.2539 134.386 59.7734L136.396 64.3516C143.754 61.1211 151.614 59.5 160 59.5V54.5ZM134.399 59.7676C126.522 63.1711 119.601 67.8477 113.654 73.7947L117.19 77.3303C122.68 71.8398 129.071 67.5164 136.382 64.3574L134.399 59.7676ZM113.654 73.7947C107.797 79.6514 103.126 86.5703 99.6328 94.5263L104.211 96.5362C107.468 89.1172 111.796 82.7236 117.19 77.3303L113.654 73.7947ZM99.627 94.5396C96.2032 102.463 94.5 110.959 94.5 120H99.5C99.5 111.604 101.078 103.787 104.217 96.5229L99.627 94.5396ZM94.5 120C94.5 129.041 96.2032 137.58 99.6226 145.591L104.221 143.628C101.078 136.264 99.5 128.396 99.5 120H94.5ZM99.6373 145.625C103.13 153.483 107.797 160.391 113.64 166.331L117.204 162.825C111.797 157.328 107.464 150.924 104.206 143.594L99.6373 145.625ZM113.669 166.36C119.609 172.203 126.517 176.87 134.375 180.363L136.406 175.794C129.076 172.536 122.672 168.203 117.175 162.796L113.669 166.36ZM134.409 180.377C142.42 183.797 150.959 185.5 160 185.5V180.5C151.604 180.5 143.736 178.922 136.372 175.779L134.409 180.377ZM160 185.5H232V180.5H160V185.5ZM232 185.5C241.041 185.5 249.537 183.797 257.46 180.373L255.477 175.783C248.213 178.922 240.396 180.5 232 180.5V185.5ZM257.474 180.367C265.43 176.874 272.349 172.203 278.205 166.346L274.67 162.81C269.276 168.204 262.883 172.532 255.464 175.789L257.474 180.367ZM278.205 166.346C284.152 160.399 288.829 153.478 292.232 145.601L287.643 143.618C284.484 150.929 280.16 157.32 274.67 162.81L278.205 166.346ZM292.227 145.614C295.746 137.598 297.5 129.051 297.5 120H292.5C292.5 128.386 290.879 136.246 287.648 143.604L292.227 145.614ZM297.5 120C297.5 110.949 295.746 102.445 292.222 94.5159L287.653 96.5466C290.879 103.805 292.5 111.613 292.5 120H297.5ZM292.237 94.5498C288.833 86.5751 284.152 79.6435 278.191 73.7802L274.684 77.3448C280.161 82.7315 284.48 89.1124 287.638 96.5127L292.237 94.5498ZM278.22 73.8094C272.356 67.8483 265.425 63.167 257.45 59.7632L255.487 64.3618C262.888 67.5205 269.269 71.8392 274.655 77.3156L278.22 73.8094ZM257.484 59.778C249.555 56.2539 241.051 54.5 232 54.5V59.5C240.387 59.5 248.195 61.1211 255.453 64.347L257.484 59.778ZM232 54.5H223V59.5H232V54.5ZM135.5 129V111H130.5V129H135.5ZM133 113.5C140.313 113.5 147.311 112.682 153.989 111.037L152.793 106.182C146.533 107.724 139.937 108.5 133 108.5V113.5ZM154.013 111.031C160.843 109.274 166.898 106.527 172.144 102.766L169.231 98.7026C164.539 102.066 159.063 104.569 152.768 106.188L154.013 111.031ZM172.169 102.748C177.456 98.8576 181.643 93.9175 184.721 87.9601L180.279 85.6649C177.544 90.9575 173.856 95.2986 169.206 98.7208L172.169 102.748ZM184.714 87.9739C187.945 81.8149 189.5 74.4569 189.5 66H184.5C184.5 73.8556 183.055 80.3726 180.286 85.6511L184.714 87.9739ZM189.5 66C189.5 59.4739 188.212 53.3114 185.625 47.5399L181.062 49.5851C183.35 54.6886 184.5 60.1511 184.5 66H189.5ZM185.64 47.5729C183.17 41.8442 179.752 36.8366 175.388 32.5714L171.893 36.1473C175.779 39.9447 178.83 44.4058 181.048 49.5521L185.64 47.5729ZM175.429 32.612C171.163 28.2477 166.156 24.8297 160.427 22.3604L158.448 26.9521C163.594 29.1703 168.055 32.2211 171.853 36.1067L175.429 32.612ZM160.46 22.375C154.689 19.7877 148.526 18.5 142 18.5V23.5C147.849 23.5 153.311 24.6498 158.415 26.9375L160.46 22.375ZM142 18.5H70V23.5H142V18.5ZM70 18.5C63.4739 18.5 57.3114 19.7877 51.5399 22.375L53.5851 26.9375C58.6886 24.6498 64.1511 23.5 70 23.5V18.5ZM51.5729 22.3604C45.8494 24.8275 40.803 28.2395 36.451 32.5916L39.9865 36.1271C43.8845 32.2292 48.4006 29.1725 53.5521 26.9521L51.5729 22.3604ZM36.451 32.5916C32.195 36.8476 28.7906 41.8375 26.2344 47.5399L30.7969 49.5851C33.1157 44.4125 36.18 39.9337 39.9865 36.1271L36.451 32.5916ZM26.2198 47.5729C23.7353 53.337 22.5 59.4878 22.5 66H27.5C27.5 60.1372 28.6084 54.663 30.8114 49.5521L26.2198 47.5729ZM22.5 66C22.5 74.4459 24.0043 81.7932 27.1307 87.9451L31.5881 85.6799C28.902 80.3943 27.5 73.8666 27.5 66H22.5ZM27.1535 87.989C30.3233 93.9323 34.551 98.8628 39.8308 102.748L42.7942 98.7208C38.1365 95.2934 34.3955 90.9427 31.5653 85.636L27.1535 87.989ZM39.8558 102.766C45.096 106.523 51.1001 109.271 57.8377 111.028L59.0998 106.19C52.8999 104.573 47.4665 102.071 42.7692 98.7026L39.8558 102.766ZM57.8788 111.039C64.6447 112.682 71.6871 113.5 79 113.5V108.5C72.0629 108.5 65.4178 107.724 59.0587 106.18L57.8788 111.039ZM76.5 111V129H81.5V111H76.5ZM79 126.5H70V131.5H79V126.5ZM70 126.5C61.6037 126.5 53.7359 124.922 46.372 121.779L44.4092 126.377C52.4203 129.797 60.9588 131.5 70 131.5V126.5ZM46.406 121.794C39.0763 118.536 32.6722 114.203 27.175 108.796L23.6688 112.36C29.609 118.203 36.5175 122.87 44.3753 126.363L46.406 121.794ZM27.2042 108.825C21.797 103.328 17.4641 96.9237 14.2064 89.594L9.63735 91.6247C13.1297 99.4825 17.7967 106.391 23.6396 112.331L27.2042 108.825ZM14.2212 89.628C11.0781 82.2641 9.5 74.3963 9.5 66H4.5C4.5 75.0412 6.20319 83.5797 9.62256 91.5908L14.2212 89.628ZM9.5 66C9.5 57.6036 11.0781 49.7868 14.2168 42.5229L9.62695 40.5396C6.20318 48.4632 4.5 56.9589 4.5 66H9.5ZM14.211 42.5362C17.4681 35.1172 21.7963 28.7236 27.1896 23.3303L23.6541 19.7947C17.7975 25.6514 13.1256 32.5703 9.63276 40.5263L14.211 42.5362ZM27.1896 23.3303C32.6801 17.8398 39.0714 13.5164 46.3823 10.3574L44.399 5.76758C36.5223 9.17107 29.6011 13.8477 23.6541 19.7947L27.1896 23.3303ZM46.3956 10.3516C53.7541 7.12106 61.6136 5.5 70 5.5V0.5C60.9489 0.5 52.4022 2.25394 44.3856 5.77339L46.3956 10.3516ZM70 5.5H142V0.5H70V5.5ZM142 5.5C150.387 5.5 158.195 7.12106 165.453 10.347L167.484 5.77797C159.555 2.25394 151.051 0.5 142 0.5V5.5ZM165.487 10.3618C172.888 13.5205 179.269 17.8392 184.655 23.3156L188.22 19.8094C182.356 13.8483 175.425 9.16703 167.45 5.76319L165.487 10.3618ZM184.684 23.3448C190.161 28.7315 194.48 35.1124 197.638 42.5127L202.237 40.5498C198.833 32.5751 194.152 25.6435 188.191 19.7802L184.684 23.3448ZM197.653 42.5466C200.879 49.805 202.5 57.6135 202.5 66H207.5C207.5 56.949 205.746 48.445 202.222 40.5159L197.653 42.5466ZM202.5 66C202.5 74.3864 200.879 82.2459 197.648 89.6044L202.227 91.6144C205.746 83.5978 207.5 75.0511 207.5 66H202.5ZM197.643 89.6177C194.484 96.9286 190.16 103.32 184.67 108.81L188.205 112.346C194.152 106.399 198.829 99.4777 202.232 91.601L197.643 89.6177ZM184.67 108.81C179.276 114.204 172.883 118.532 165.464 121.789L167.474 126.367C175.43 122.874 182.349 118.203 188.205 112.346L184.67 108.81ZM165.477 121.783C158.213 124.922 150.396 126.5 142 126.5V131.5C151.041 131.5 159.537 129.797 167.46 126.373L165.477 121.783ZM142 126.5H133V131.5H142V126.5Z" fill="white"/>
</g>
<defs>
<filter id="filter0_d" x="0.5" y="0.5" width="301" height="193" filterUnits="userSpaceOnUse" color-interpolation-filters="sRGB">
<feFlood flood-opacity="0" result="BackgroundImageFix"/>
<feColorMatrix in="SourceAlpha" type="matrix" values="0 0 0 0 0 0 0 0 0 0 0 0 0 0 0 0 0 0 127 0"/>
<feOffset dy="4"/>
<feGaussianBlur stdDeviation="2"/>
<feColorMatrix type="matrix" values="0 0 0 0 0 0 0 0 0 0 0 0 0 0 0 0 0 0 0.25 0"/>
<feBlend mode="normal" in2="BackgroundImageFix" result="effect1_dropShadow"/>
<feBlend mode="normal" in="SourceGraphic" in2="effect1_dropShadow" result="shape"/>
</filter>
</defs>
</svg>
